# This file uses centimeters as units for non-parametric coordinates.

mtllib Chalkboard.mtl
g default
v -9.956305 0.000000 0.450005
v -10.000000 0.043695 0.450005
v -9.950005 0.093690 0.500000
v -9.906309 0.049995 0.500000
v -10.000000 9.096305 0.450005
v -9.956305 9.140000 0.450005
v -9.906309 9.090006 0.500000
v -9.950005 9.046310 0.500000
v 10.000000 0.043695 0.450005
v 9.956305 0.000000 0.450005
v 9.906309 0.049995 0.500000
v 9.950005 0.093690 0.500000
v 9.956305 9.140000 0.450005
v 10.000000 9.096305 0.450005
v 9.950005 9.046310 0.500000
v 9.906309 9.090006 0.500000
v -9.806300 0.150005 0.500000
v -9.849996 0.193700 0.500000
v -9.800000 0.243695 0.450005
v -9.756305 0.200000 0.450005
v -9.849996 8.946301 0.500000
v -9.806300 8.989996 0.500000
v -9.756305 8.940001 0.450005
v -9.800000 8.896305 0.450005
v 9.849996 0.193700 0.500000
v 9.806300 0.150005 0.500000
v 9.756305 0.200000 0.450005
v 9.800000 0.243695 0.450005
v 9.806300 8.989996 0.500000
v 9.849996 8.946301 0.500000
v 9.800000 8.896305 0.450005
v 9.756305 8.940001 0.450005
v 9.956305 9.140000 0.062996
v 10.000000 9.096305 0.062996
v -10.000000 9.096305 0.062996
v -9.956305 9.140000 0.062996
v 10.000000 0.043695 0.062996
v 9.956305 0.000000 0.062996
v -9.956305 0.000000 0.062996
v -10.000000 0.043695 0.062996
v 9.800000 0.243695 0.156504
v 9.756305 0.200000 0.156504
v -9.756305 0.200000 0.156504
v -9.800000 0.243695 0.156504
v 9.756305 8.940001 0.156504
v 9.800000 8.896305 0.156504
v -9.800000 8.896305 0.156504
v -9.756305 8.940001 0.156504
v 9.806300 0.150005 1.045063
v -9.806300 0.150005 1.045063
v 9.806300 0.150005 1.251881
v -9.806300 0.150005 1.251881
v 9.906309 0.049995 1.065063
v 9.889238 0.049995 1.045063
v 9.906309 0.049995 1.027993
v 9.886310 0.069995 1.045063
v 9.906309 0.434370 1.065063
v 9.886310 0.434370 1.045063
v 9.886310 0.454370 1.065063
v 9.806300 0.454370 1.065063
v 9.806300 0.434370 1.045063
v 9.886310 0.069995 1.251881
v 9.892167 0.049995 1.251881
v 9.906309 0.049995 1.231881
v 9.886310 0.454370 1.231881
v 9.886310 0.434370 1.251881
v 9.906309 0.434370 1.231881
v 9.806300 0.434370 1.251881
v 9.806300 0.454370 1.231881
v -9.806300 0.454370 1.065063
v -9.806300 0.434370 1.045063
v -9.806300 0.434370 1.251881
v -9.806300 0.454370 1.231881
v -9.886310 0.069995 1.045063
v -9.906309 0.049995 1.027993
v -9.889238 0.049995 1.045063
v -9.906309 0.049995 1.065063
v -9.886310 0.454370 1.065063
v -9.886310 0.434370 1.045063
v -9.906309 0.434370 1.065063
v -9.906309 0.049995 1.231881
v -9.892167 0.049995 1.251881
v -9.886310 0.069995 1.251881
v -9.886310 0.454370 1.231881
v -9.906309 0.434370 1.231881
v -9.886310 0.434370 1.251881
vt 0.830235 0.326893
vt 0.843784 0.326893
vt 0.843784 0.643830
vt 0.830235 0.643830
vt 0.830235 0.325364
vt 0.843784 0.325364
vt 0.830235 0.645360
vt 0.843784 0.645360
vt 0.828484 0.328644
vt 0.828484 0.642080
vt 0.815851 0.003522
vt 0.829400 0.003522
vt 0.829400 0.320459
vt 0.815851 0.320459
vt 0.829400 0.001992
vt 0.815851 0.001992
vt 0.831151 0.005272
vt 0.831151 0.318709
vt 0.829400 0.321989
vt 0.815851 0.321989
vt 0.804334 0.693325
vt 0.804334 0.996258
vt 0.794058 0.996258
vt 0.794058 0.693325
vt 0.806084 0.691574
vt 0.806084 0.998008
vt 0.804334 0.997787
vt 0.794058 0.997787
vt 0.804334 0.691795
vt 0.794058 0.691795
vt 0.813021 0.996258
vt 0.813021 0.693325
vt 0.823297 0.693325
vt 0.823297 0.996258
vt 0.811271 0.691574
vt 0.811271 0.998008
vt 0.813021 0.691795
vt 0.823297 0.691795
vt 0.813021 0.997787
vt 0.823297 0.997787
vt 0.788171 0.717198
vt 0.774713 0.717198
vt 0.774713 0.711358
vt 0.788171 0.711358
vt 0.775414 0.717898
vt 0.788171 0.717898
vt 0.775414 0.710657
vt 0.788171 0.710657
vt 0.788871 0.711358
vt 0.788871 0.717198
vt 0.774713 0.717898
vt 0.774713 0.710657
vt 0.774713 0.710060
vt 0.774713 0.691574
vt 0.778215 0.691574
vt 0.778215 0.710657
vt 0.768826 0.698115
vt 0.755369 0.698115
vt 0.755369 0.692275
vt 0.768826 0.692275
vt 0.756069 0.698815
vt 0.768826 0.698815
vt 0.756069 0.691574
vt 0.768826 0.691574
vt 0.769526 0.698115
vt 0.769526 0.692275
vt 0.755369 0.699413
vt 0.755369 0.698815
vt 0.755369 0.691574
vt 0.758870 0.717898
vt 0.755369 0.717898
vt 0.758870 0.698815
vt 0.377645 0.699144
vt 0.377645 0.001992
vt 0.391194 0.001992
vt 0.391194 0.699144
vt 0.375894 0.697394
vt 0.375894 0.003742
vt 0.341658 0.699144
vt 0.328109 0.699144
vt 0.328109 0.001992
vt 0.341658 0.001992
vt 0.343409 0.697394
vt 0.343409 0.003742
vt 0.361894 0.003742
vt 0.362492 0.004340
vt 0.362492 0.696796
vt 0.361894 0.697394
vt 0.363192 0.697394
vt 0.363192 0.003742
vt 0.369032 0.003742
vt 0.369732 0.004238
vt 0.369732 0.696899
vt 0.369032 0.697394
vt 0.469230 0.686890
vt 0.469230 0.003742
vt 0.479506 0.003742
vt 0.479506 0.686890
vt 0.467480 0.688641
vt 0.467480 0.001992
vt 0.448397 0.688641
vt 0.448397 0.001992
vt 0.496571 0.003742
vt 0.496571 0.686890
vt 0.486295 0.686890
vt 0.486295 0.003742
vt 0.498321 0.001992
vt 0.498321 0.688641
vt 0.423629 0.001992
vt 0.423629 0.004793
vt 0.417789 0.004793
vt 0.417789 0.001992
vt 0.424330 0.001992
vt 0.424330 0.004793
vt 0.423629 0.691442
vt 0.417789 0.691442
vt 0.417089 0.001992
vt 0.417089 0.004793
vt 0.424330 0.691442
vt 0.423629 0.694243
vt 0.417789 0.694243
vt 0.417089 0.691442
vt 0.424330 0.694243
vt 0.417089 0.694243
vt 0.505951 0.688200
vt 0.504421 0.686670
vt 0.504421 0.003522
vt 0.505951 0.001992
vt 0.808884 0.001992
vt 0.810414 0.003522
vt 0.810414 0.686670
vt 0.808884 0.688200
vt 0.003214 0.702204
vt 0.001684 0.700674
vt 0.003435 0.698924
vt 0.004964 0.700453
vt 0.006936 0.695422
vt 0.008466 0.696952
vt 0.008686 0.693672
vt 0.010216 0.695202
vt 0.318401 0.700453
vt 0.314899 0.696952
vt 0.319931 0.698924
vt 0.316429 0.695422
vt 0.321681 0.700674
vt 0.320151 0.702204
vt 0.313149 0.695202
vt 0.314679 0.693672
vt 0.319931 0.005272
vt 0.316429 0.008774
vt 0.318401 0.003742
vt 0.314899 0.007244
vt 0.320151 0.001992
vt 0.321681 0.003522
vt 0.314679 0.010524
vt 0.313149 0.008994
vt 0.004964 0.003742
vt 0.008466 0.007244
vt 0.003435 0.005272
vt 0.006936 0.008774
vt 0.001684 0.003522
vt 0.003214 0.001992
vt 0.010216 0.008994
vt 0.008686 0.010524
vt 0.398016 0.694448
vt 0.397316 0.694653
vt 0.397316 0.001992
vt 0.398016 0.002197
vt 0.400817 0.004998
vt 0.400817 0.691647
vt 0.410773 0.002197
vt 0.410773 0.004998
vt 0.410773 0.691647
vt 0.410773 0.694448
vt 0.430271 0.001992
vt 0.443028 0.001992
vt 0.440227 0.004793
vt 0.430271 0.004793
vt 0.440227 0.691442
vt 0.430271 0.691442
vt 0.443028 0.694243
vt 0.430271 0.694243
vn 0.000000 0.000000 1.000000
vn 0.000000 0.000000 1.000000
vn 0.000000 0.000000 1.000000
vn 0.000000 0.000000 1.000000
vn 0.000000 0.000000 1.000000
vn 0.000000 0.000000 1.000000
vn 0.000000 0.000000 1.000000
vn 0.000000 0.000000 1.000000
vn -0.707107 -0.707107 0.000000
vn -0.707107 -0.707107 0.000000
vn -0.707107 -0.707107 0.000000
vn -0.707107 -0.707107 0.000000
vn -0.704299 -0.005576 0.709882
vn -0.408247 -0.408245 0.816499
vn -0.408247 -0.408245 0.816499
vn -0.705874 -0.002453 0.708334
vn 0.000000 0.000000 1.000000
vn 0.000000 0.000000 1.000000
vn 0.000000 0.000000 1.000000
vn 0.000000 0.000000 1.000000
vn -0.707107 0.707107 0.000000
vn -0.707107 0.707107 0.000000
vn -0.707107 0.707107 0.000000
vn -0.707107 0.707107 0.000000
vn -0.408248 0.408246 0.816498
vn -0.704299 0.005576 0.709882
vn -0.705874 0.002453 0.708334
vn -0.408248 0.408246 0.816498
vn 0.000000 0.000000 1.000000
vn 0.000000 0.000000 1.000000
vn 0.000000 0.000000 1.000000
vn 0.000000 0.000000 1.000000
vn 0.707107 -0.707107 0.000000
vn 0.707107 -0.707107 0.000000
vn 0.707107 -0.707107 0.000000
vn 0.707107 -0.707107 0.000000
vn 0.408248 -0.408245 0.816499
vn 0.704299 -0.005576 0.709882
vn 0.705874 -0.002453 0.708334
vn 0.408248 -0.408245 0.816499
vn 0.000000 0.000000 1.000000
vn 0.000000 0.000000 1.000000
vn 0.000000 0.000000 1.000000
vn 0.000000 0.000000 1.000000
vn 0.707107 0.707107 0.000000
vn 0.707107 0.707107 0.000000
vn 0.707107 0.707107 0.000000
vn 0.707107 0.707107 0.000000
vn 0.704299 0.005576 0.709882
vn 0.408246 0.408244 0.816500
vn 0.408246 0.408244 0.816500
vn 0.705874 0.002453 0.708334
vn 0.000000 0.000000 1.000000
vn 0.000000 0.000000 1.000000
vn 0.000000 0.000000 1.000000
vn 0.000000 0.000000 1.000000
vn 0.704202 0.005766 0.709976
vn 0.408246 0.408250 0.816497
vn 0.408246 0.408250 0.816497
vn 0.705831 0.002537 0.708376
vn 0.707104 0.707110 0.000000
vn 0.707104 0.707110 0.000000
vn 0.707104 0.707110 0.000000
vn 0.707104 0.707110 0.000000
vn 0.408245 -0.408249 0.816498
vn 0.704202 -0.005766 0.709976
vn 0.705831 -0.002537 0.708376
vn 0.408245 -0.408249 0.816498
vn 0.707104 -0.707110 0.000000
vn 0.707104 -0.707110 0.000000
vn 0.707104 -0.707110 0.000000
vn 0.707104 -0.707110 0.000000
vn -0.408247 0.408250 0.816497
vn -0.704202 0.005766 0.709976
vn -0.705831 0.002537 0.708376
vn -0.408247 0.408250 0.816497
vn -0.707104 0.707110 0.000000
vn -0.707104 0.707110 0.000000
vn -0.707104 0.707110 0.000000
vn -0.707104 0.707110 0.000000
vn -0.704202 -0.005766 0.709976
vn -0.408245 -0.408249 0.816498
vn -0.408245 -0.408249 0.816498
vn -0.705831 -0.002537 0.708376
vn -0.707104 -0.707110 0.000000
vn -0.707104 -0.707110 0.000000
vn -0.707104 -0.707110 0.000000
vn -0.707104 -0.707110 0.000000
vn 0.000000 -0.707107 0.707107
vn 0.000000 -0.707107 0.707107
vn 0.000000 -0.707107 0.707107
vn 0.000000 -0.707107 0.707107
vn 0.000000 0.707108 0.707105
vn 0.000000 0.707108 0.707106
vn 0.000000 0.707108 0.707106
vn 0.000000 0.707108 0.707105
vn 0.000000 0.707107 0.707107
vn 0.000000 0.707107 0.707107
vn 0.000000 0.707107 0.707107
vn 0.000000 0.707107 0.707107
vn 0.000000 -0.707103 0.707111
vn 0.000000 -0.707103 0.707111
vn 0.000000 -0.707103 0.707111
vn 0.000000 -0.707103 0.707111
vn 0.000000 1.000000 0.000000
vn 0.000000 1.000000 0.000000
vn 0.000000 1.000000 0.000000
vn 0.000000 1.000000 0.000000
vn 0.000000 -1.000000 0.000000
vn 0.000000 -1.000000 0.000000
vn 0.000000 -1.000000 0.000000
vn 0.000000 -1.000000 0.000000
vn 1.000000 0.000000 0.000000
vn 1.000000 0.000000 0.000000
vn 1.000000 0.000000 0.000000
vn 1.000000 0.000000 0.000000
vn -1.000000 0.000000 0.000000
vn -1.000000 0.000000 0.000000
vn -1.000000 0.000000 0.000000
vn -1.000000 0.000000 0.000000
vn 0.000000 1.000000 0.000000
vn 0.000000 1.000000 0.000000
vn 0.000000 1.000000 0.000000
vn 0.000000 1.000000 0.000000
vn -1.000000 0.000000 0.000000
vn -1.000000 0.000000 0.000000
vn -1.000000 0.000000 0.000000
vn -1.000000 0.000000 0.000000
vn 0.000000 -1.000000 0.000000
vn 0.000000 -1.000000 0.000000
vn 0.000000 -1.000000 0.000000
vn 0.000000 -1.000000 0.000000
vn 1.000000 0.000000 0.000000
vn 1.000000 0.000000 0.000000
vn 1.000000 0.000000 0.000000
vn 1.000000 0.000000 0.000000
vn 0.000000 -1.000000 0.000000
vn 0.000000 -1.000000 0.000000
vn 0.000000 -1.000000 0.000000
vn 0.000000 -1.000000 0.000000
vn 0.000000 -1.000000 0.000000
vn 0.000000 -1.000000 0.000000
vn 0.707111 0.707102 -0.000000
vn 0.707111 0.707102 -0.000000
vn 0.707111 0.707102 -0.000000
vn 0.707111 0.707102 -0.000000
vn 0.707111 0.707102 -0.000000
vn 0.000000 1.000000 0.000000
vn 0.000000 1.000000 0.000000
vn 0.000000 1.000000 0.000000
vn 0.000000 1.000000 0.000000
vn -0.707111 0.707102 -0.000000
vn -0.707111 0.707102 -0.000000
vn -0.707111 0.707102 -0.000000
vn -0.707111 0.707102 -0.000000
vn -0.707111 0.707102 -0.000000
vn 0.000000 -1.000000 -0.000000
vn 0.000000 -1.000000 -0.000000
vn 0.000000 -1.000000 -0.000000
vn 0.000000 -1.000000 -0.000000
vn 0.000000 -1.000000 -0.000000
vn 0.000000 -1.000000 -0.000000
vn 0.000000 -1.000000 -0.000000
vn 0.000000 -1.000000 -0.000000
vn 0.000000 0.000000 1.000000
vn 0.000000 0.000000 1.000000
vn 0.000000 0.000000 1.000000
vn 0.000000 0.000000 1.000000
vn 0.000000 0.000000 1.000000
vn 0.000000 0.000000 1.000000
vn 0.707112 0.000000 -0.707102
vn 0.707112 0.000000 -0.707102
vn 0.707112 0.000000 -0.707102
vn 0.707112 0.000000 -0.707102
vn 0.707112 0.707102 0.000000
vn 0.707112 0.707102 0.000000
vn 0.707112 0.707102 0.000000
vn 0.707112 0.707102 0.000000
vn 0.000000 0.707101 -0.707113
vn 0.000000 0.707101 -0.707113
vn 0.000000 0.707102 -0.707111
vn 0.000000 0.707102 -0.707111
vn 0.000000 0.707102 -0.707111
vn 0.000000 0.707102 -0.707111
vn 0.708079 0.001939 0.706131
vn 0.708917 0.003626 0.705283
vn 0.707112 0.000000 0.707102
vn 0.707112 0.000000 0.707102
vn 0.000000 0.707101 0.707113
vn 0.000000 0.707101 0.707113
vn 0.000000 0.707102 0.707111
vn 0.000000 0.707102 0.707111
vn 0.000000 0.707102 0.707111
vn 0.000000 0.707102 0.707111
vn 0.000000 0.707101 -0.707113
vn 0.000000 0.707101 -0.707113
vn 0.000000 0.707101 0.707113
vn 0.000000 0.707101 0.707113
vn -0.707112 0.000000 -0.707102
vn -0.707112 0.000000 -0.707102
vn -0.707112 0.000000 -0.707102
vn -0.707112 0.000000 -0.707102
vn -0.707112 0.707102 0.000000
vn -0.707112 0.707102 0.000000
vn -0.707112 0.707102 0.000000
vn -0.707112 0.707102 0.000000
vn -0.708917 0.003626 0.705283
vn -0.708079 0.001939 0.706131
vn -0.707112 0.000000 0.707102
vn -0.707112 0.000000 0.707102
vn 0.000000 1.000000 0.000000
vn 0.000000 1.000000 0.000000
vn 0.000000 1.000000 0.000000
vn 0.000000 1.000000 0.000000
vn 0.000000 1.000000 0.000000
vn 0.000000 1.000000 0.000000
vn 0.000000 1.000000 0.000000
vn 0.000000 1.000000 0.000000
vn -0.000001 0.000000 -1.000000
vn -0.000001 0.000000 -1.000000
vn -0.000000 0.000000 -1.000000
vn -0.000000 0.000000 -1.000000
vn 0.000000 0.000000 1.000000
vn 0.000000 0.000000 1.000000
vn 1.000000 0.000000 0.000000
vn 1.000000 0.000000 0.000000
vn 1.000000 0.000000 0.000000
vn 1.000000 0.000000 0.000000
vn 0.000000 0.000000 -1.000000
vn 0.000000 0.000000 -1.000000
vn 0.000000 0.000000 1.000000
vn 0.000001 0.000000 -1.000000
vn 0.000001 0.000000 -1.000000
vn -1.000000 0.000000 0.000000
vn -1.000000 0.000000 0.000000
vn -1.000000 0.000000 0.000000
vn -1.000000 0.000000 0.000000
vn 0.000000 0.000000 1.000000
vn 0.989448 0.144892 0.000000
vn 0.989448 0.144892 0.000000
vn 0.989448 0.144892 0.000000
vn 0.989448 0.144892 0.000000
vn 0.577362 0.577335 -0.577354
vn 0.577362 0.577335 -0.577354
vn 0.577362 0.577335 -0.577354
vn 0.794091 0.232639 0.561514
vn 0.577362 0.577335 0.577354
vn 0.577362 0.577335 0.577354
vn 0.577362 0.577335 0.577354
vn -0.989442 0.144930 0.000000
vn -0.989442 0.144930 0.000000
vn -0.989442 0.144930 0.000000
vn -0.989442 0.144930 0.000000
vn -0.577362 0.577335 -0.577354
vn -0.577362 0.577335 -0.577354
vn -0.577362 0.577335 -0.577354
vn -0.794091 0.232639 0.561514
vn -0.577362 0.577335 0.577354
vn -0.577362 0.577335 0.577354
vn -0.577362 0.577335 0.577354
s off
g ChalkBoard
usemtl lambert3SG
f 44/125/1 43/126/2 42/127/3 41/128/4 46/129/5 45/130/6 48/131/7 47/132/8
usemtl lambert4SG
f 1/15/9 2/12/10 40/11/11 39/16/12
s 1
f 2/133/13 1/134/14 4/135/15 3/136/16
s 2
f 3/136/17 4/135/18 17/137/19 18/138/20
s off
f 5/13/21 6/19/22 36/20/23 35/14/24
s 1
f 6/145/25 5/146/26 8/141/27 7/143/28
s 2
f 7/143/29 8/141/30 21/142/31 22/144/32
s off
f 9/1/33 10/5/34 38/6/35 37/2/36
s 3
f 10/161/37 9/162/38 12/157/39 11/159/40
s 2
f 11/159/41 12/157/42 25/158/43 26/160/44
s off
f 13/7/45 14/4/46 34/3/47 33/8/48
s 3
f 14/153/49 13/154/50 16/149/51 15/151/52
s 2
f 15/151/53 16/149/54 29/150/55 30/152/56
s 5
f 18/138/57 17/137/58 20/139/59 19/140/60
s off
f 19/32/61 20/37/62 43/38/63 44/33/64
s 5
f 22/144/65 21/142/66 24/147/67 23/148/68
s off
f 23/39/69 24/31/70 47/34/71 48/40/72
s 6
f 26/160/73 25/158/74 28/163/75 27/164/76
s off
f 27/29/77 28/21/78 41/24/79 42/30/80
s 6
f 30/152/81 29/150/82 32/155/83 31/156/84
s off
f 31/22/85 32/27/86 45/28/87 46/23/88
s 1
f 2/12/13 3/17/16 8/18/27 5/13/26
s off
f 4/83/89 1/79/90 10/82/91 11/84/92
s 3
f 12/9/39 9/1/38 14/4/49 15/10/52
s off
f 6/73/93 7/77/94 16/78/95 13/74/96
s 5
f 18/35/57 19/32/60 24/31/67 21/36/66
s off
f 20/95/97 17/99/98 26/100/99 27/96/100
s 6
f 28/21/75 25/25/74 30/26/81 31/22/84
s off
f 32/103/101 29/107/102 22/108/103 23/104/104
f 6/73/105 13/74/106 33/75/107 36/76/108
f 1/79/109 39/80/110 38/81/111 10/82/112
f 9/1/113 37/2/114 34/3/115 14/4/116
f 40/11/117 2/12/118 5/13/119 35/14/120
s 2
f 12/157/42 15/151/53 30/152/56 25/158/43
f 16/149/54 7/143/29 22/144/32 29/150/55
f 8/141/30 3/136/17 18/138/20 21/142/31
s off
f 20/95/121 27/96/122 42/97/123 43/98/124
f 28/21/125 31/22/126 46/23/127 41/24/128
f 32/103/129 23/104/130 48/105/131 45/106/132
f 24/31/133 19/32/134 44/33/135 47/34/136
f 4/83/137 11/84/138 55/85/139 54/86/140 76/87/141 75/88/142
f 11/54/143 26/55/144 49/56/145 56/47/146 55/53/147
f 26/100/148 17/99/149 50/101/150 49/102/151
f 17/70/152 4/71/153 75/67/154 74/61/155 50/72/156
f 77/89/157 76/87/158 54/86/159 53/90/160 64/91/161 63/92/162 82/93/163 81/94/164
s 7
f 83/165/165 82/166/166 63/167/167 62/168/168 51/169/169 52/170/170
s off
f 53/43/171 56/47/172 58/48/173 57/44/174
f 57/44/175 59/49/176 65/50/177 67/41/178
s 8
f 59/109/179 58/113/180 61/114/181 60/110/182
f 60/110/182 61/114/181 71/119/183 70/115/184
s 9
f 62/45/185 64/42/186 67/41/187 66/46/188
s 10
f 66/117/189 65/112/190 69/111/191 68/118/192
f 68/118/192 69/111/191 73/116/193 72/122/194
s 8
f 70/115/184 71/119/183 79/123/195 78/120/196
s 10
f 72/122/194 73/116/193 84/121/197 86/124/198
s off
f 74/61/199 77/58/200 80/57/201 79/62/202
f 78/65/203 80/57/204 85/60/205 84/66/206
s 11
f 81/59/207 83/63/208 86/64/209 85/60/210
s 12
f 59/109/211 60/110/212 69/111/213 65/112/214
f 60/110/212 70/115/215 73/116/216 69/111/213
f 70/115/215 78/120/217 84/121/218 73/116/216
s 13
f 58/175/219 56/176/220 49/177/221 61/178/222
s 7
f 51/169/169 62/168/168 66/171/223 68/172/224
s off
f 67/41/225 64/42/226 53/43/227 57/44/228
s 13
f 49/177/221 50/179/229 71/180/230 61/178/222
s 7
f 52/170/170 51/169/169 68/172/224 72/173/231
s 13
f 50/179/229 74/181/232 79/182/233 71/180/230
s off
f 80/57/234 77/58/235 81/59/236 85/60/237
s 7
f 86/174/238 83/165/165 52/170/170 72/173/231
s off
f 53/43/239 54/52/240 55/53/241 56/47/242
f 57/44/243 58/48/244 59/49/245
s 9
f 62/45/185 63/51/246 64/42/186
s off
f 65/50/247 66/46/248 67/41/249
f 74/61/250 75/67/251 76/68/252 77/58/253
f 78/65/254 79/62/255 80/57/256
s 11
f 81/59/207 82/69/257 83/63/208
s off
f 84/66/258 85/60/259 86/64/260
